# Blender v2.90.0 OBJ File: ''
# www.blender.org
mtllib 2.mtl
o Text
v 0.338091 0.000000 -0.456770
v 0.337947 0.000000 -0.451695
v 0.337514 0.000000 -0.446529
v 0.336791 0.000000 -0.441272
v 0.335780 0.000000 -0.435925
v 0.334480 0.000000 -0.430488
v 0.332892 0.000000 -0.424959
v 0.331014 0.000000 -0.419340
v 0.328847 0.000000 -0.413631
v 0.326392 0.000000 -0.407830
v 0.323647 0.000000 -0.401940
v 0.320614 0.000000 -0.395958
v 0.317292 0.000000 -0.389886
v 0.141925 0.000000 -0.083605
v 0.337276 0.000000 -0.083605
v 0.337276 0.000000 0.000000
v 0.027732 0.000000 0.000000
v 0.027732 0.000000 -0.059135
v 0.243883 0.000000 -0.439233
v 0.243883 0.000000 -0.557096
v 0.127651 0.000000 -0.557096
v 0.127651 0.000000 -0.438418
v 0.034258 0.000000 -0.438418
v 0.034258 0.000000 -0.580343
v 0.034663 0.000000 -0.589592
v 0.035878 0.000000 -0.598038
v 0.037903 0.000000 -0.605679
v 0.040738 0.000000 -0.612516
v 0.044383 0.000000 -0.618548
v 0.048838 0.000000 -0.623776
v 0.054103 0.000000 -0.628200
v 0.060178 0.000000 -0.631820
v 0.067063 0.000000 -0.634635
v 0.074758 0.000000 -0.636646
v 0.083263 0.000000 -0.637852
v 0.092577 0.000000 -0.638254
v 0.279772 0.000000 -0.638254
v 0.289087 0.000000 -0.637852
v 0.297592 0.000000 -0.636646
v 0.305286 0.000000 -0.634635
v 0.312171 0.000000 -0.631820
v 0.318246 0.000000 -0.628200
v 0.323511 0.000000 -0.623777
v 0.327966 0.000000 -0.618548
v 0.331611 0.000000 -0.612516
v 0.334446 0.000000 -0.605679
v 0.336471 0.000000 -0.598038
v 0.337686 0.000000 -0.589592
v 0.338091 0.000000 -0.580343
vt 0.708333 0.000000
vt 0.750000 0.000000
vt 0.729167 0.000000
vt 0.770833 0.000000
vt 0.791667 0.000000
vt 0.687500 0.000000
vt 0.812500 0.000000
vt 0.666667 0.000000
vt 0.833333 0.000000
vt 0.645833 0.000000
vt 0.854167 0.000000
vt 0.625000 0.000000
vt 0.875000 0.000000
vt 0.604167 0.000000
vt 0.895833 0.000000
vt 0.583333 0.000000
vt 0.916667 0.000000
vt 0.562500 0.000000
vt 0.937500 0.000000
vt 0.541667 0.000000
vt 0.958333 0.000000
vt 0.520833 0.000000
vt 0.979167 0.000000
vt 0.500000 0.000000
vt 1.000000 0.000000
vt 0.479167 0.000000
vt 0.458333 0.000000
vt 0.416667 0.000000
vt 0.395833 0.000000
vt 0.000000 0.000000
vt 0.437500 0.000000
vt 0.375000 0.000000
vt 0.020833 0.000000
vt 0.041667 0.000000
vt 0.062500 0.000000
vt 0.083333 0.000000
vt 0.354167 0.000000
vt 0.104167 0.000000
vt 0.125000 0.000000
vt 0.145833 0.000000
vt 0.166667 0.000000
vt 0.187500 0.000000
vt 0.208333 0.000000
vt 0.229167 0.000000
vt 0.250000 0.000000
vt 0.270833 0.000000
vt 0.291667 0.000000
vt 0.312500 0.000000
vt 0.333333 0.000000
vn 0.0000 1.0000 0.0000
usemtl None
s off
f 35/1/1 37/2/1 36/3/1
f 35/1/1 38/4/1 37/2/1
f 35/1/1 39/5/1 38/4/1
f 34/6/1 39/5/1 35/1/1
f 34/6/1 40/7/1 39/5/1
f 33/8/1 40/7/1 34/6/1
f 33/8/1 41/9/1 40/7/1
f 32/10/1 41/9/1 33/8/1
f 32/10/1 42/11/1 41/9/1
f 31/12/1 42/11/1 32/10/1
f 31/12/1 43/13/1 42/11/1
f 30/14/1 43/13/1 31/12/1
f 30/14/1 44/15/1 43/13/1
f 29/16/1 44/15/1 30/14/1
f 29/16/1 45/17/1 44/15/1
f 28/18/1 45/17/1 29/16/1
f 28/18/1 46/19/1 45/17/1
f 27/20/1 46/19/1 28/18/1
f 27/20/1 47/21/1 46/19/1
f 26/22/1 47/21/1 27/20/1
f 26/22/1 48/23/1 47/21/1
f 25/24/1 48/23/1 26/22/1
f 25/24/1 49/25/1 48/23/1
f 24/26/1 49/25/1 25/24/1
f 23/27/1 21/28/1 24/26/1
f 21/28/1 49/25/1 24/26/1
f 21/28/1 20/29/1 49/25/1
f 20/29/1 1/30/1 49/25/1
f 23/27/1 22/31/1 21/28/1
f 19/32/1 1/30/1 20/29/1
f 19/32/1 2/33/1 1/30/1
f 19/32/1 3/34/1 2/33/1
f 19/32/1 4/35/1 3/34/1
f 19/32/1 5/36/1 4/35/1
f 18/37/1 5/36/1 19/32/1
f 18/37/1 6/38/1 5/36/1
f 18/37/1 7/39/1 6/38/1
f 18/37/1 8/40/1 7/39/1
f 18/37/1 9/41/1 8/40/1
f 18/37/1 10/42/1 9/41/1
f 18/37/1 11/43/1 10/42/1
f 18/37/1 12/44/1 11/43/1
f 18/37/1 13/45/1 12/44/1
f 18/37/1 14/46/1 13/45/1
f 18/37/1 15/47/1 14/46/1
f 18/37/1 16/48/1 15/47/1
f 17/49/1 16/48/1 18/37/1
