# Blender v2.90.0 OBJ File: ''
# www.blender.org
mtllib 4.mtl
o Text
v 0.363377 0.000000 -0.120310
v 0.314845 0.000000 -0.120310
v 0.314845 0.000000 0.000000
v 0.223899 0.000000 0.000000
v 0.223899 0.000000 -0.120310
v 0.014274 0.000000 -0.120310
v 0.014274 0.000000 -0.176998
v 0.172920 0.000000 -0.638254
v 0.269984 0.000000 -0.638254
v 0.269984 0.000000 -0.637793
v 0.269984 0.000000 -0.637359
v 0.269984 0.000000 -0.636954
v 0.269984 0.000000 -0.636578
v 0.269984 0.000000 -0.636229
v 0.269984 0.000000 -0.635909
v 0.269984 0.000000 -0.635618
v 0.269984 0.000000 -0.635354
v 0.269984 0.000000 -0.635119
v 0.269984 0.000000 -0.634912
v 0.269984 0.000000 -0.634734
v 0.269984 0.000000 -0.634584
v 0.121126 0.000000 -0.201468
v 0.223899 0.000000 -0.201468
v 0.223899 0.000000 -0.393556
v 0.314845 0.000000 -0.393556
v 0.314845 0.000000 -0.201468
v 0.363377 0.000000 -0.201468
vt 0.230769 0.000000
vt 0.307692 0.000000
vt 0.269231 0.000000
vt 0.346154 0.000000
vt 0.384615 0.000000
vt 0.423077 0.000000
vt 0.461538 0.000000
vt 0.500000 0.000000
vt 0.538462 0.000000
vt 0.576923 0.000000
vt 0.615385 0.000000
vt 0.653846 0.000000
vt 0.692308 0.000000
vt 0.730769 0.000000
vt 0.769231 0.000000
vt 0.807692 0.000000
vt 0.846154 0.000000
vt 0.923077 0.000000
vt 0.884615 0.000000
vt 0.961538 0.000000
vt 1.000000 0.000000
vt 0.000000 0.000000
vt 0.192308 0.000000
vt 0.153846 0.000000
vt 0.115385 0.000000
vt 0.038462 0.000000
vt 0.076923 0.000000
vn 0.0000 1.0000 0.0000
vn 0.0000 0.0000 1.0000
usemtl None
s off
f 7/1/1 9/2/1 8/3/1
f 7/1/1 10/4/1 9/2/1
f 7/1/1 11/5/1 10/4/1
f 7/1/1 12/6/1 11/5/1
f 7/1/1 13/7/1 12/6/1
f 7/1/1 14/8/1 13/7/1
f 7/1/1 15/9/1 14/8/1
f 7/1/1 16/10/1 15/9/1
f 7/1/1 17/11/1 16/10/1
f 7/1/1 18/12/1 17/11/1
f 7/1/1 19/13/1 18/12/1
f 7/1/1 20/14/1 19/13/1
f 7/1/1 21/15/1 20/14/1
f 7/1/1 22/16/1 21/15/1
f 23/17/1 25/18/1 24/19/1
f 23/17/1 26/20/1 25/18/1
f 7/1/1 23/17/1 22/16/1
f 7/1/1 26/20/1 23/17/1
f 7/1/1 27/21/1 26/20/1
f 7/1/1 1/22/1 27/21/1
f 6/23/1 1/22/1 7/1/1
f 5/24/2 1/22/2 6/23/2
f 4/25/1 2/26/1 5/24/1
f 2/26/2 1/22/2 5/24/2
f 4/25/1 3/27/1 2/26/1
