# Blender v2.90.0 OBJ File: ''
# www.blender.org
mtllib 5.mtl
o Text
v 0.343393 0.000000 -0.058320
v 0.342991 0.000000 -0.049005
v 0.341785 0.000000 -0.040500
v 0.339774 0.000000 -0.032805
v 0.336959 0.000000 -0.025920
v 0.333339 0.000000 -0.019845
v 0.328915 0.000000 -0.014580
v 0.323687 0.000000 -0.010125
v 0.317655 0.000000 -0.006480
v 0.310818 0.000000 -0.003645
v 0.303177 0.000000 -0.001620
v 0.294731 0.000000 -0.000405
v 0.285481 0.000000 0.000000
v 0.094209 0.000000 0.000000
v 0.085154 0.000000 -0.000405
v 0.076887 0.000000 -0.001620
v 0.069408 0.000000 -0.003645
v 0.062715 0.000000 -0.006480
v 0.056810 0.000000 -0.010125
v 0.051693 0.000000 -0.014580
v 0.047362 0.000000 -0.019845
v 0.043819 0.000000 -0.025920
v 0.041063 0.000000 -0.032805
v 0.039095 0.000000 -0.040500
v 0.037914 0.000000 -0.049005
v 0.037520 0.000000 -0.058320
v 0.037520 0.000000 -0.205546
v 0.131321 0.000000 -0.205546
v 0.131321 0.000000 -0.081974
v 0.249592 0.000000 -0.081974
v 0.249592 0.000000 -0.327488
v 0.037520 0.000000 -0.327488
v 0.047716 0.000000 -0.638254
v 0.338907 0.000000 -0.638254
v 0.338907 0.000000 -0.554649
v 0.136215 0.000000 -0.554649
v 0.130098 0.000000 -0.409462
v 0.285481 0.000000 -0.409462
v 0.294731 0.000000 -0.409059
v 0.303177 0.000000 -0.407853
v 0.310818 0.000000 -0.405842
v 0.317655 0.000000 -0.403027
v 0.323687 0.000000 -0.399408
v 0.328915 0.000000 -0.394984
v 0.333339 0.000000 -0.389756
v 0.336959 0.000000 -0.383723
v 0.339774 0.000000 -0.376886
v 0.341785 0.000000 -0.369245
v 0.342991 0.000000 -0.360800
v 0.343393 0.000000 -0.351550
vt 0.632653 0.000000
vt 0.714286 0.000000
vt 0.653061 0.000000
vt 0.673469 0.000000
vt 0.693878 0.000000
vt 0.734694 0.000000
vt 0.755102 0.000000
vt 0.775510 0.000000
vt 0.795918 0.000000
vt 0.816327 0.000000
vt 0.836735 0.000000
vt 0.857143 0.000000
vt 0.877551 0.000000
vt 0.897959 0.000000
vt 0.918367 0.000000
vt 0.938776 0.000000
vt 0.959184 0.000000
vt 0.979592 0.000000
vt 1.000000 0.000000
vt 0.612245 0.000000
vt 0.000000 0.000000
vt 0.591837 0.000000
vt 0.510204 0.000000
vt 0.551020 0.000000
vt 0.530612 0.000000
vt 0.571429 0.000000
vt 0.489796 0.000000
vt 0.020408 0.000000
vt 0.469388 0.000000
vt 0.040816 0.000000
vt 0.448980 0.000000
vt 0.061224 0.000000
vt 0.428571 0.000000
vt 0.081633 0.000000
vt 0.408163 0.000000
vt 0.102041 0.000000
vt 0.387755 0.000000
vt 0.122449 0.000000
vt 0.142857 0.000000
vt 0.367347 0.000000
vt 0.163265 0.000000
vt 0.346939 0.000000
vt 0.183673 0.000000
vt 0.326531 0.000000
vt 0.204082 0.000000
vt 0.306122 0.000000
vt 0.224490 0.000000
vt 0.285714 0.000000
vt 0.244898 0.000000
vt 0.265306 0.000000
vn 0.0000 1.0000 0.0000
usemtl None
s off
f 32/1/1 36/2/1 33/3/1
f 36/2/1 34/4/1 33/3/1
f 36/2/1 35/5/1 34/4/1
f 32/1/1 37/6/1 36/2/1
f 32/1/1 38/7/1 37/6/1
f 32/1/1 39/8/1 38/7/1
f 32/1/1 40/9/1 39/8/1
f 32/1/1 41/10/1 40/9/1
f 32/1/1 42/11/1 41/10/1
f 32/1/1 43/12/1 42/11/1
f 32/1/1 44/13/1 43/12/1
f 32/1/1 45/14/1 44/13/1
f 32/1/1 46/15/1 45/14/1
f 32/1/1 47/16/1 46/15/1
f 32/1/1 48/17/1 47/16/1
f 32/1/1 49/18/1 48/17/1
f 32/1/1 50/19/1 49/18/1
f 32/1/1 31/20/1 50/19/1
f 31/20/1 1/21/1 50/19/1
f 30/22/1 1/21/1 31/20/1
f 26/23/1 28/24/1 27/25/1
f 26/23/1 29/26/1 28/24/1
f 26/23/1 30/22/1 29/26/1
f 26/23/1 1/21/1 30/22/1
f 25/27/1 1/21/1 26/23/1
f 25/27/1 2/28/1 1/21/1
f 24/29/1 2/28/1 25/27/1
f 24/29/1 3/30/1 2/28/1
f 23/31/1 3/30/1 24/29/1
f 23/31/1 4/32/1 3/30/1
f 22/33/1 4/32/1 23/31/1
f 22/33/1 5/34/1 4/32/1
f 21/35/1 5/34/1 22/33/1
f 21/35/1 6/36/1 5/34/1
f 20/37/1 6/36/1 21/35/1
f 20/37/1 7/38/1 6/36/1
f 20/37/1 8/39/1 7/38/1
f 19/40/1 8/39/1 20/37/1
f 19/40/1 9/41/1 8/39/1
f 18/42/1 9/41/1 19/40/1
f 18/42/1 10/43/1 9/41/1
f 17/44/1 10/43/1 18/42/1
f 17/44/1 11/45/1 10/43/1
f 16/46/1 11/45/1 17/44/1
f 16/46/1 12/47/1 11/45/1
f 15/48/1 12/47/1 16/46/1
f 15/48/1 13/49/1 12/47/1
f 14/50/1 13/49/1 15/48/1
